<svg width="512" height="512" viewBox="0 0 512 512" fill="none" xmlns="http://www.w3.org/2000/svg">
<rect width="512" height="512" fill="#D1F00F"/>
<path d="M233.074 191.082C235.353 191.082 236.98 191.57 237.957 192.547C238.934 193.523 239.422 195.151 239.422 197.43V226.922C239.422 229.135 238.478 230.73 236.59 231.707C234.702 232.618 231.674 233.074 227.508 233.074C223.471 233.074 220.704 232.618 219.207 231.707C217.71 230.796 216.961 229.201 216.961 226.922V212.078H177.898V236.785H201.727C204.005 236.785 205.6 237.534 206.512 239.031C207.423 240.529 207.879 243.296 207.879 247.332C207.879 251.368 207.423 254.135 206.512 255.633C205.6 257.065 204.005 257.781 201.727 257.781H177.898V286.004H217.938V266.277C217.938 264.064 218.882 262.501 220.77 261.59C222.723 260.613 225.88 260.125 230.242 260.125C234.539 260.125 237.469 260.581 239.031 261.492C240.594 262.404 241.375 263.999 241.375 266.277V300.652C241.375 302.866 240.887 304.493 239.91 305.535C238.934 306.512 237.306 307 235.027 307H144.012C142.449 307 141.245 306.74 140.398 306.219C139.552 305.698 138.901 304.721 138.445 303.289C138.055 301.857 137.859 299.773 137.859 297.039C137.859 294.305 138.055 292.221 138.445 290.789C138.901 289.357 139.552 288.38 140.398 287.859C141.245 287.273 142.449 286.98 144.012 286.98H153.484V211.102H144.012C142.449 211.102 141.245 210.841 140.398 210.32C139.552 209.799 138.901 208.823 138.445 207.391C138.055 205.958 137.859 203.875 137.859 201.141C137.859 198.406 138.055 196.323 138.445 194.891C138.901 193.458 139.552 192.482 140.398 191.961C141.245 191.375 142.449 191.082 144.012 191.082H233.074ZM359.832 191.082C361.395 191.082 362.599 191.375 363.445 191.961C364.292 192.482 364.91 193.458 365.301 194.891C365.757 196.323 365.984 198.406 365.984 201.141C365.984 203.875 365.757 205.958 365.301 207.391C364.91 208.823 364.292 209.799 363.445 210.32C362.599 210.841 361.395 211.102 359.832 211.102H354.363L328.387 248.016L356.805 286.98H362.762C364.324 286.98 365.529 287.273 366.375 287.859C367.221 288.38 367.84 289.357 368.23 290.789C368.686 292.221 368.914 294.305 368.914 297.039C368.914 299.773 368.686 301.857 368.23 303.289C367.84 304.721 367.221 305.698 366.375 306.219C365.529 306.74 364.324 307 362.762 307H323.309C321.746 307 320.542 306.74 319.695 306.219C318.849 305.698 318.198 304.721 317.742 303.289C317.352 301.857 317.156 299.773 317.156 297.039C317.156 294.305 317.352 292.221 317.742 290.789C318.198 289.357 318.849 288.38 319.695 287.859C320.542 287.273 321.746 286.98 323.309 286.98H328.387L311.492 263.152L294.793 286.98H298.504C300.066 286.98 301.271 287.273 302.117 287.859C302.964 288.38 303.582 289.357 303.973 290.789C304.428 292.221 304.656 294.305 304.656 297.039C304.656 299.773 304.428 301.857 303.973 303.289C303.582 304.721 302.964 305.698 302.117 306.219C301.271 306.74 300.066 307 298.504 307H261.004C259.441 307 258.237 306.74 257.391 306.219C256.544 305.698 255.893 304.721 255.438 303.289C255.047 301.857 254.852 299.773 254.852 297.039C254.852 294.305 255.047 292.221 255.438 290.789C255.893 289.357 256.544 288.38 257.391 287.859C258.237 287.273 259.441 286.98 261.004 286.98H267.059L295.477 246.941L269.793 211.102H263.934C262.371 211.102 261.167 210.841 260.32 210.32C259.474 209.799 258.823 208.823 258.367 207.391C257.977 205.958 257.781 203.875 257.781 201.141C257.781 198.406 257.977 196.323 258.367 194.891C258.823 193.458 259.474 192.482 260.32 191.961C261.167 191.375 262.371 191.082 263.934 191.082H302.41C303.973 191.082 305.177 191.375 306.023 191.961C306.87 192.482 307.488 193.458 307.879 194.891C308.335 196.323 308.562 198.406 308.562 201.141C308.562 203.875 308.335 205.958 307.879 207.391C307.488 208.823 306.87 209.799 306.023 210.32C305.177 210.841 303.973 211.102 302.41 211.102H298.211L312.469 231.512L326.629 211.102H324.285C322.723 211.102 321.518 210.841 320.672 210.32C319.826 209.799 319.174 208.823 318.719 207.391C318.328 205.958 318.133 203.875 318.133 201.141C318.133 198.406 318.328 196.323 318.719 194.891C319.174 193.458 319.826 192.482 320.672 191.961C321.518 191.375 322.723 191.082 324.285 191.082H359.832Z" fill="black"/>
</svg>
