<svg width="512" height="512" viewBox="0 0 512 512" fill="none" xmlns="http://www.w3.org/2000/svg">
<g clip-path="url(#clip0_1_2)">
<rect width="512" height="512" fill="#263238"/>
<path fill-rule="evenodd" clip-rule="evenodd" d="M31.2679 90.8653L33.9201 98.3992L37.2724 105.526L43.3076 113.55L51.7426 121.396L57.5808 125.811L59.3133 110.72L39.8673 91.5798L31.2679 90.8653Z" fill="#F7F7F7" stroke="black"/>
<path fill-rule="evenodd" clip-rule="evenodd" d="M286.765 277.094L291.442 259.777L165.306 96.3003L157.436 90.548L146.353 87.9364L134.574 85.7357L119.756 79.5077L94.7595 91.3552L94.1193 95.8911L99.9577 107.001L107.374 101.378L116.219 96.9947L128.9 93.6622L142.785 94.6192L153.03 98.1385L166.11 110.801L182.819 129.636L202.167 153.987L227.921 189.535L253.57 227.641L286.765 277.094Z" fill="#878376" stroke="black"/>
<path fill-rule="evenodd" clip-rule="evenodd" d="M261.47 41.9331L257.438 45.9709L231.779 38.7149L220.896 37.6755L207.219 38.2788L195.839 41.2666L186.579 45.0731L178.23 52.0762L173.266 59.5632L173.565 69.3425L178.55 81.3316L184.8 92.9858L169.961 73.9571L166.507 60.6534L171.342 44.9448L187.65 32.409L210.719 27.5093L225.092 26.4895L239.708 31.136L261.47 41.9331Z" fill="#878376" stroke="black"/>
<path fill-rule="evenodd" clip-rule="evenodd" d="M69.1384 72.8841L79.5847 83.7838L99.0503 77.4197L105.659 71.2412L103.422 62.2745L101.53 48.7849L101.978 46.051L93.0918 54.1894L86.6898 60.6429L80.0812 66.8214L74.5443 70.0958L69.1384 72.8841Z" fill="#878376" stroke="black"/>
<path fill-rule="evenodd" clip-rule="evenodd" d="M317.874 229.468L382.766 294.352L405.634 320.064L437.172 361.301L454.868 388.828L467.876 412.11L478.07 426.319L493.022 440.189L498.615 447.621L499.973 453.427L497.522 458.176L490.042 464.245L474.901 474.838L460.698 481.985L447.857 486.267L438.29 484.899L434.15 480.742L433.225 475.51L434.055 465.93L433.065 456.61L431.414 449.742L420.066 433.329L409.843 417.076L393.79 396.417L376.754 375.104L363.449 359.431L346.573 339.674L330.521 319.015L315.894 299.579L307.163 288.639L311.341 268.834L317.874 229.468Z" fill="#333D47" stroke="black"/>
<path fill-rule="evenodd" clip-rule="evenodd" d="M454.292 429.363L458.541 448.383L461.794 449.362L473.085 442.281L473.883 439.328L457.811 429.358L454.292 429.363Z" fill="#EC5C39" stroke="black"/>
<path fill-rule="evenodd" clip-rule="evenodd" d="M292.734 220.614L267.367 193.648L250.65 172.792L223.548 138.137L209.124 119.659L196.867 104.059L180.854 82.7866L174.492 73.6728L170.234 63.3177L169.571 57.0625L171.135 49.0813L177.772 39.7666L189.668 32.7456L205.988 28.9241L221.22 26.9984L234.09 28.3212L242.74 30.0737L253.53 33.6667L265.058 38.9071L267.552 36.1868L248.5 28.3292L227.349 21.7208L204.261 17.9051L181.243 18.209L157.285 21.9645L128.631 32.2352L108.207 44.7074L105.437 48.4141L105.069 60.6755L108.625 71.4396L106.558 74.7373L93.2339 80.5288L84.669 83.9235L74.0468 73.1682L37.6935 87.983L34.6574 92.677L44.1205 101.208L50.6148 109.832L58.7057 121.251L61.6343 127.823L64.2021 129.216L67.8943 130.769L98.3215 107.419L92.3607 96.8205L92.2973 92.702L116.117 80.722L119.817 82.2763L131.775 88.0874L150.469 90.7588L157.861 93.8663L163.158 98.2163L289.068 261.383L292.734 220.614Z" fill="#DDDED9" stroke="black"/>
<path fill-rule="evenodd" clip-rule="evenodd" d="M300.577 222.315L302.186 222.552L309.837 229.447L306.167 269.014L300.529 288.48L292.671 277.042L297.084 260.152L300.577 222.315Z" fill="#F2F13E" stroke="black"/>
<path d="M55.1958 228.531C56.0259 228.531 56.6118 228.726 56.9536 229.117C57.3198 229.483 57.5029 230.118 57.5029 231.021V244.827C57.5029 245.682 57.2954 246.292 56.8804 246.658C56.4653 247.024 55.7573 247.208 54.7563 247.208C53.7554 247.208 53.0474 247.024 52.6323 246.658C52.2173 246.292 52.0098 245.682 52.0098 244.827V233.511H42.2319V267.02H50.8745C51.7046 267.02 52.2905 267.215 52.6323 267.605C52.9985 267.972 53.1816 268.606 53.1816 269.51C53.1816 270.413 52.9985 271.06 52.6323 271.451C52.2905 271.817 51.7046 272 50.8745 272H28.0962C27.2661 272 26.668 271.817 26.3018 271.451C25.96 271.06 25.7891 270.413 25.7891 269.51C25.7891 268.606 25.96 267.972 26.3018 267.605C26.668 267.215 27.2661 267.02 28.0962 267.02H36.7388V233.511H26.9609V244.827C26.9609 245.682 26.7534 246.292 26.3384 246.658C25.9233 247.024 25.2153 247.208 24.2144 247.208C23.2134 247.208 22.5054 247.024 22.0903 246.658C21.6753 246.292 21.4678 245.682 21.4678 244.827V231.021C21.4678 230.118 21.6387 229.483 21.9805 229.117C22.3467 228.726 22.9448 228.531 23.7749 228.531H55.1958ZM84.4561 227.725C88.2646 227.725 91.6216 228.665 94.5269 230.545C97.4565 232.425 99.7148 235.074 101.302 238.492C102.913 241.885 103.719 245.816 103.719 250.284C103.719 254.751 102.913 258.694 101.302 262.112C99.7148 265.506 97.4565 268.143 94.5269 270.022C91.6216 271.878 88.2646 272.806 84.4561 272.806C80.6475 272.806 77.2783 271.878 74.3486 270.022C71.4434 268.143 69.1851 265.506 67.5737 262.112C65.9868 258.694 65.1934 254.751 65.1934 250.284C65.1934 245.816 65.9868 241.885 67.5737 238.492C69.1851 235.074 71.4434 232.425 74.3486 230.545C77.2783 228.665 80.6475 227.725 84.4561 227.725ZM84.4561 233.145C81.7705 233.145 79.4023 233.841 77.3516 235.232C75.3252 236.624 73.7505 238.614 72.6274 241.202C71.5288 243.79 70.9795 246.817 70.9795 250.284C70.9795 253.75 71.5288 256.778 72.6274 259.366C73.7505 261.929 75.3252 263.907 77.3516 265.298C79.4023 266.69 81.7705 267.386 84.4561 267.386C87.1416 267.386 89.4976 266.69 91.5239 265.298C93.5747 263.907 95.1494 261.929 96.248 259.366C97.3711 256.778 97.9326 253.75 97.9326 250.284C97.9326 246.817 97.3711 243.79 96.248 241.202C95.1494 238.614 93.5747 236.624 91.5239 235.232C89.4976 233.841 87.1416 233.145 84.4561 233.145ZM129.427 227.725C133.235 227.725 136.592 228.665 139.498 230.545C142.427 232.425 144.686 235.074 146.272 238.492C147.884 241.885 148.689 245.816 148.689 250.284C148.689 254.751 147.884 258.694 146.272 262.112C144.686 265.506 142.427 268.143 139.498 270.022C136.592 271.878 133.235 272.806 129.427 272.806C125.618 272.806 122.249 271.878 119.319 270.022C116.414 268.143 114.156 265.506 112.544 262.112C110.958 258.694 110.164 254.751 110.164 250.284C110.164 245.816 110.958 241.885 112.544 238.492C114.156 235.074 116.414 232.425 119.319 230.545C122.249 228.665 125.618 227.725 129.427 227.725ZM129.427 233.145C126.741 233.145 124.373 233.841 122.322 235.232C120.296 236.624 118.721 238.614 117.598 241.202C116.5 243.79 115.95 246.817 115.95 250.284C115.95 253.75 116.5 256.778 117.598 259.366C118.721 261.929 120.296 263.907 122.322 265.298C124.373 266.69 126.741 267.386 129.427 267.386C132.112 267.386 134.468 266.69 136.495 265.298C138.545 263.907 140.12 261.929 141.219 259.366C142.342 256.778 142.903 253.75 142.903 250.284C142.903 246.817 142.342 243.79 141.219 241.202C140.12 238.614 138.545 236.624 136.495 235.232C134.468 233.841 132.112 233.145 129.427 233.145ZM177.437 228.531C178.267 228.531 178.853 228.726 179.195 229.117C179.561 229.483 179.744 230.118 179.744 231.021C179.744 231.924 179.561 232.571 179.195 232.962C178.853 233.328 178.267 233.511 177.437 233.511H168.575V267.02H186.702V254.971C186.702 254.117 186.91 253.506 187.325 253.14C187.74 252.774 188.448 252.591 189.449 252.591C190.45 252.591 191.158 252.774 191.573 253.14C191.988 253.506 192.195 254.117 192.195 254.971V269.51C192.195 270.413 192.012 271.06 191.646 271.451C191.304 271.817 190.718 272 189.888 272H157.149C156.319 272 155.721 271.817 155.354 271.451C155.013 271.06 154.842 270.413 154.842 269.51C154.842 268.606 155.013 267.972 155.354 267.605C155.721 267.215 156.319 267.02 157.149 267.02H163.082V233.511H157.149C156.319 233.511 155.721 233.328 155.354 232.962C155.013 232.571 154.842 231.924 154.842 231.021C154.842 230.118 155.013 229.483 155.354 229.117C155.721 228.726 156.319 228.531 157.149 228.531H177.437ZM231.417 227.725C232.417 227.725 233.125 227.908 233.541 228.274C233.956 228.641 234.163 229.251 234.163 230.105V238.528C234.163 239.383 233.956 239.993 233.541 240.359C233.125 240.726 232.417 240.909 231.417 240.909C230.489 240.909 229.854 240.591 229.512 239.957C228.34 237.735 226.692 236.05 224.568 234.903C222.444 233.731 220.027 233.145 217.317 233.145C214.632 233.145 212.544 233.768 211.055 235.013C209.59 236.258 208.858 237.93 208.858 240.03C208.858 241.031 209.114 241.873 209.627 242.557C210.14 243.24 210.872 243.826 211.824 244.314C212.679 244.754 213.68 245.12 214.827 245.413C215.975 245.682 217.513 245.999 219.441 246.365C221.541 246.78 223.201 247.134 224.422 247.427C225.667 247.696 226.888 248.074 228.084 248.562C230.525 249.563 232.43 250.967 233.797 252.774C235.188 254.556 235.884 256.973 235.884 260.025C235.884 262.564 235.286 264.798 234.09 266.727C232.894 268.631 231.124 270.12 228.78 271.194C226.46 272.269 223.665 272.806 220.394 272.806C217.952 272.806 215.682 272.366 213.582 271.487C211.507 270.584 209.7 269.278 208.162 267.569V270.425C208.162 271.28 207.955 271.89 207.54 272.256C207.125 272.623 206.417 272.806 205.416 272.806C204.415 272.806 203.707 272.623 203.292 272.256C202.876 271.89 202.669 271.28 202.669 270.425V259.439C202.669 258.584 202.876 257.974 203.292 257.608C203.707 257.242 204.415 257.059 205.416 257.059C206.465 257.059 207.173 257.571 207.54 258.597C208.541 261.429 210.127 263.602 212.3 265.115C214.498 266.629 217.195 267.386 220.394 267.386C223.519 267.386 225.911 266.714 227.571 265.372C229.256 264.029 230.098 262.247 230.098 260.025C230.098 258.487 229.708 257.242 228.926 256.29C228.169 255.313 227.059 254.507 225.594 253.873C224.666 253.458 223.653 253.128 222.554 252.884C221.456 252.615 219.954 252.286 218.05 251.895C216.048 251.504 214.363 251.138 212.996 250.796C211.653 250.455 210.408 250.027 209.261 249.515C207.308 248.636 205.782 247.452 204.683 245.962C203.609 244.449 203.072 242.471 203.072 240.03C203.072 237.515 203.67 235.33 204.866 233.475C206.087 231.619 207.771 230.203 209.92 229.227C212.093 228.226 214.559 227.725 217.317 227.725C219.466 227.725 221.541 228.14 223.543 228.97C225.545 229.8 227.254 230.923 228.67 232.339V230.105C228.67 229.251 228.877 228.641 229.292 228.274C229.708 227.908 230.416 227.725 231.417 227.725Z" fill="#00D415"/>
<path d="M335.137 143.531C335.967 143.531 336.553 143.726 336.895 144.117C337.261 144.483 337.444 145.118 337.444 146.021V159.827C337.444 160.682 337.237 161.292 336.822 161.658C336.407 162.024 335.699 162.208 334.698 162.208C333.697 162.208 332.989 162.024 332.574 161.658C332.159 161.292 331.951 160.682 331.951 159.827V148.511H322.173V182.02H330.816C331.646 182.02 332.232 182.215 332.574 182.605C332.94 182.972 333.123 183.606 333.123 184.51C333.123 185.413 332.94 186.06 332.574 186.451C332.232 186.817 331.646 187 330.816 187H308.038C307.208 187 306.609 186.817 306.243 186.451C305.901 186.06 305.73 185.413 305.73 184.51C305.73 183.606 305.901 182.972 306.243 182.605C306.609 182.215 307.208 182.02 308.038 182.02H316.68V148.511H306.902V159.827C306.902 160.682 306.695 161.292 306.28 161.658C305.865 162.024 305.157 162.208 304.156 162.208C303.155 162.208 302.447 162.024 302.032 161.658C301.617 161.292 301.409 160.682 301.409 159.827V146.021C301.409 145.118 301.58 144.483 301.922 144.117C302.288 143.726 302.886 143.531 303.716 143.531H335.137ZM379.449 171.253C380.45 171.253 381.158 171.436 381.573 171.802C381.988 172.168 382.195 172.779 382.195 173.633V184.51C382.195 185.413 382.012 186.06 381.646 186.451C381.304 186.817 380.718 187 379.888 187H347.149C346.319 187 345.721 186.817 345.354 186.451C345.013 186.06 344.842 185.413 344.842 184.51C344.842 183.606 345.013 182.972 345.354 182.605C345.721 182.215 346.319 182.02 347.149 182.02H350.884V148.511H347.149C346.319 148.511 345.721 148.328 345.354 147.962C345.013 147.571 344.842 146.924 344.842 146.021C344.842 145.118 345.013 144.483 345.354 144.117C345.721 143.726 346.319 143.531 347.149 143.531H379.156C379.986 143.531 380.572 143.726 380.914 144.117C381.28 144.483 381.463 145.118 381.463 146.021V155.323C381.463 156.177 381.255 156.788 380.84 157.154C380.425 157.52 379.717 157.703 378.716 157.703C377.715 157.703 377.007 157.52 376.592 157.154C376.177 156.788 375.97 156.177 375.97 155.323V148.511H356.377V162.098H365.826V158.765C365.826 157.911 366.009 157.3 366.375 156.934C366.766 156.568 367.449 156.385 368.426 156.385C369.402 156.385 370.074 156.568 370.44 156.934C370.831 157.3 371.026 157.911 371.026 158.765V170.411C371.026 171.265 370.831 171.875 370.44 172.242C370.074 172.608 369.402 172.791 368.426 172.791C367.449 172.791 366.766 172.608 366.375 172.242C366.009 171.875 365.826 171.265 365.826 170.411V167.078H356.377V182.02H376.702V173.633C376.702 172.779 376.91 172.168 377.325 171.802C377.74 171.436 378.448 171.253 379.449 171.253ZM426.617 143.531C427.447 143.531 428.033 143.726 428.375 144.117C428.741 144.483 428.924 145.118 428.924 146.021C428.924 146.924 428.741 147.571 428.375 147.962C428.033 148.328 427.447 148.511 426.617 148.511H424.236L412.92 164.405L425.591 182.02H427.715C428.545 182.02 429.131 182.215 429.473 182.605C429.839 182.972 430.022 183.606 430.022 184.51C430.022 185.413 429.839 186.06 429.473 186.451C429.131 186.817 428.545 187 427.715 187H414.751C413.921 187 413.323 186.817 412.957 186.451C412.615 186.06 412.444 185.413 412.444 184.51C412.444 183.606 412.615 182.972 412.957 182.605C413.323 182.215 413.921 182.02 414.751 182.02H418.743L409.405 168.653L399.847 182.02H402.886C403.716 182.02 404.302 182.215 404.644 182.605C405.01 182.972 405.193 183.606 405.193 184.51C405.193 185.413 405.01 186.06 404.644 186.451C404.302 186.817 403.716 187 402.886 187H391.021C390.191 187 389.593 186.817 389.227 186.451C388.885 186.06 388.714 185.413 388.714 184.51C388.714 183.606 388.885 182.972 389.227 182.605C389.593 182.215 390.191 182.02 391.021 182.02H393.292L406.072 164.332L394.646 148.511H392.12C391.29 148.511 390.691 148.328 390.325 147.962C389.983 147.571 389.812 146.924 389.812 146.021C389.812 145.118 389.983 144.483 390.325 144.117C390.691 143.726 391.29 143.531 392.12 143.531H404.717C405.547 143.531 406.133 143.726 406.475 144.117C406.841 144.483 407.024 145.118 407.024 146.021C407.024 146.924 406.841 147.571 406.475 147.962C406.133 148.328 405.547 148.511 404.717 148.511H401.458L409.551 160.083L417.681 148.511H415.484C414.654 148.511 414.056 148.328 413.689 147.962C413.348 147.571 413.177 146.924 413.177 146.021C413.177 145.118 413.348 144.483 413.689 144.117C414.056 143.726 414.654 143.531 415.484 143.531H426.617ZM470.049 143.531C470.879 143.531 471.465 143.726 471.807 144.117C472.173 144.483 472.356 145.118 472.356 146.021V159.827C472.356 160.682 472.149 161.292 471.734 161.658C471.319 162.024 470.611 162.208 469.61 162.208C468.609 162.208 467.901 162.024 467.486 161.658C467.071 161.292 466.863 160.682 466.863 159.827V148.511H457.085V182.02H465.728C466.558 182.02 467.144 182.215 467.486 182.605C467.852 182.972 468.035 183.606 468.035 184.51C468.035 185.413 467.852 186.06 467.486 186.451C467.144 186.817 466.558 187 465.728 187H442.95C442.12 187 441.521 186.817 441.155 186.451C440.813 186.06 440.643 185.413 440.643 184.51C440.643 183.606 440.813 182.972 441.155 182.605C441.521 182.215 442.12 182.02 442.95 182.02H451.592V148.511H441.814V159.827C441.814 160.682 441.607 161.292 441.192 161.658C440.777 162.024 440.069 162.208 439.068 162.208C438.067 162.208 437.359 162.024 436.944 161.658C436.529 161.292 436.321 160.682 436.321 159.827V146.021C436.321 145.118 436.492 144.483 436.834 144.117C437.2 143.726 437.798 143.531 438.628 143.531H470.049Z" fill="#00D415"/>
<rect x="82" y="349" width="234" height="109" fill="#840101"/>
<g filter="url(#filter0_d_1_2)">
<path d="M156.536 385.531C162.151 385.531 166.399 386.8 169.28 389.339C172.186 391.854 173.638 395.492 173.638 400.252C173.638 405.013 172.186 408.663 169.28 411.202C166.399 413.741 162.151 415.011 156.536 415.011H151.043V421.493H158.99C159.576 421.493 160.027 421.603 160.345 421.822C160.662 422.018 160.894 422.384 161.041 422.921C161.211 423.458 161.297 424.239 161.297 425.265C161.297 426.29 161.211 427.071 161.041 427.608C160.894 428.146 160.662 428.512 160.345 428.707C160.027 428.902 159.576 429 158.99 429H136.504C135.918 429 135.467 428.902 135.149 428.707C134.832 428.512 134.588 428.146 134.417 427.608C134.271 427.071 134.197 426.29 134.197 425.265C134.197 424.239 134.271 423.458 134.417 422.921C134.588 422.384 134.832 422.018 135.149 421.822C135.467 421.603 135.918 421.493 136.504 421.493H141.888V393.038H136.504C135.918 393.038 135.467 392.94 135.149 392.745C134.832 392.55 134.588 392.184 134.417 391.646C134.271 391.109 134.197 390.328 134.197 389.303C134.197 388.277 134.271 387.496 134.417 386.959C134.588 386.422 134.832 386.056 135.149 385.86C135.467 385.641 135.918 385.531 136.504 385.531H156.536ZM151.043 407.137H155.401C158.306 407.137 160.491 406.576 161.956 405.453C163.445 404.33 164.19 402.596 164.19 400.252C164.19 397.909 163.445 396.188 161.956 395.089C160.491 393.966 158.306 393.404 155.401 393.404H151.043V407.137ZM200.774 385.531C205.926 385.531 209.881 386.666 212.64 388.937C215.398 391.207 216.778 394.503 216.778 398.824C216.778 404.464 213.75 408.016 207.696 409.481C209.014 409.994 210.064 410.75 210.845 411.751C211.358 412.411 211.822 413.106 212.237 413.839C212.676 414.547 213.177 415.45 213.738 416.549C214.324 417.721 214.776 418.563 215.093 419.076C215.582 419.881 216.07 420.492 216.558 420.907C217.046 421.297 217.596 421.493 218.206 421.493H218.902C219.488 421.493 219.939 421.603 220.257 421.822C220.574 422.018 220.806 422.384 220.953 422.921C221.124 423.458 221.209 424.239 221.209 425.265C221.209 426.29 221.124 427.071 220.953 427.608C220.806 428.146 220.574 428.512 220.257 428.707C219.939 428.902 219.488 429 218.902 429H215.35C213.421 429 211.858 428.609 210.662 427.828C209.466 427.047 208.367 425.741 207.366 423.91C206.878 423.055 206.292 421.883 205.608 420.394C205.12 419.271 204.656 418.307 204.217 417.501C203.777 416.671 203.289 415.865 202.752 415.084C201.995 414.034 201.153 413.277 200.225 412.813C199.297 412.35 198.187 412.118 196.893 412.118H194.549V421.493H198.101C198.687 421.493 199.139 421.603 199.456 421.822C199.773 422.018 200.005 422.384 200.152 422.921C200.323 423.458 200.408 424.239 200.408 425.265C200.408 426.29 200.323 427.071 200.152 427.608C200.005 428.146 199.773 428.512 199.456 428.707C199.139 428.902 198.687 429 198.101 429H181.475C180.889 429 180.438 428.902 180.12 428.707C179.803 428.512 179.559 428.146 179.388 427.608C179.241 427.071 179.168 426.29 179.168 425.265C179.168 424.239 179.241 423.458 179.388 422.921C179.559 422.384 179.803 422.018 180.12 421.822C180.438 421.603 180.889 421.493 181.475 421.493H185.394V393.038H181.475C180.889 393.038 180.438 392.94 180.12 392.745C179.803 392.55 179.559 392.184 179.388 391.646C179.241 391.109 179.168 390.328 179.168 389.303C179.168 388.277 179.241 387.496 179.388 386.959C179.559 386.422 179.803 386.056 180.12 385.86C180.438 385.641 180.889 385.531 181.475 385.531H200.774ZM194.549 404.244H200.005C202.496 404.244 204.339 403.805 205.535 402.926C206.731 402.022 207.33 400.655 207.33 398.824C207.33 396.993 206.731 395.638 205.535 394.759C204.339 393.856 202.496 393.404 200.005 393.404H194.549V404.244ZM244.427 384.725C248.431 384.725 251.958 385.641 255.01 387.472C258.062 389.278 260.418 391.891 262.078 395.309C263.763 398.702 264.605 402.682 264.605 407.247C264.605 411.812 263.763 415.804 262.078 419.222C260.418 422.616 258.062 425.228 255.01 427.059C251.958 428.89 248.431 429.806 244.427 429.806C240.423 429.806 236.895 428.89 233.843 427.059C230.792 425.228 228.423 422.616 226.739 419.222C225.079 415.804 224.249 411.812 224.249 407.247C224.249 402.682 225.079 398.702 226.739 395.309C228.423 391.891 230.792 389.278 233.843 387.472C236.895 385.641 240.423 384.725 244.427 384.725ZM244.427 393.038C241.033 393.038 238.458 394.259 236.7 396.7C234.942 399.142 234.063 402.657 234.063 407.247C234.063 411.837 234.942 415.365 236.7 417.831C238.458 420.272 241.033 421.493 244.427 421.493C247.82 421.493 250.396 420.272 252.154 417.831C253.912 415.365 254.791 411.837 254.791 407.247C254.791 402.657 253.912 399.142 252.154 396.7C250.396 394.259 247.82 393.038 244.427 393.038Z" fill="#3948D3"/>
</g>
</g>
<defs>
<filter id="filter0_d_1_2" x="130.197" y="384.725" width="138.408" height="53.0806" filterUnits="userSpaceOnUse" color-interpolation-filters="sRGB">
<feFlood flood-opacity="0" result="BackgroundImageFix"/>
<feColorMatrix in="SourceAlpha" type="matrix" values="0 0 0 0 0 0 0 0 0 0 0 0 0 0 0 0 0 0 127 0" result="hardAlpha"/>
<feOffset dy="4"/>
<feGaussianBlur stdDeviation="2"/>
<feComposite in2="hardAlpha" operator="out"/>
<feColorMatrix type="matrix" values="0 0 0 0 0 0 0 0 0 0 0 0 0 0 0 0 0 0 0.25 0"/>
<feBlend mode="normal" in2="BackgroundImageFix" result="effect1_dropShadow_1_2"/>
<feBlend mode="normal" in="SourceGraphic" in2="effect1_dropShadow_1_2" result="shape"/>
</filter>
<clipPath id="clip0_1_2">
<rect width="512" height="512" fill="white"/>
</clipPath>
</defs>
</svg>
