<svg width="512" height="512" viewBox="0 0 512 512" fill="none" xmlns="http://www.w3.org/2000/svg">
<g clip-path="url(#clip0_1_2)">
<rect width="512" height="512" fill="#D1F00F"/>
<path d="M242.004 163.082C244.283 163.082 245.91 163.57 246.887 164.547C247.863 165.523 248.352 167.151 248.352 169.43V210.641C248.352 212.789 247.44 214.352 245.617 215.328C243.859 216.305 241.125 216.793 237.414 216.793C233.833 216.793 231.327 216.337 229.895 215.426C228.527 214.449 227.844 212.854 227.844 210.641V184.078H210.168V258.98H231.262C232.824 258.98 234.029 259.273 234.875 259.859C235.721 260.38 236.34 261.357 236.73 262.789C237.186 264.221 237.414 266.305 237.414 269.039C237.414 271.773 237.186 273.857 236.73 275.289C236.34 276.721 235.721 277.698 234.875 278.219C234.029 278.74 232.824 279 231.262 279H164.66C163.098 279 161.893 278.74 161.047 278.219C160.201 277.698 159.549 276.721 159.094 275.289C158.703 273.857 158.508 271.773 158.508 269.039C158.508 266.305 158.703 264.221 159.094 262.789C159.549 261.357 160.201 260.38 161.047 259.859C161.893 259.273 163.098 258.98 164.66 258.98H185.754V184.078H168.078V210.641C168.078 212.789 167.167 214.352 165.344 215.328C163.586 216.305 160.852 216.793 157.141 216.793C153.56 216.793 151.053 216.337 149.621 215.426C148.254 214.449 147.57 212.854 147.57 210.641V169.43C147.57 167.151 148.059 165.523 149.035 164.547C150.077 163.57 151.704 163.082 153.918 163.082H242.004ZM361.926 163.082C364.204 163.082 365.832 163.57 366.809 164.547C367.785 165.523 368.273 167.151 368.273 169.43V210.641C368.273 212.789 367.362 214.352 365.539 215.328C363.781 216.305 361.047 216.793 357.336 216.793C353.755 216.793 351.249 216.337 349.816 215.426C348.449 214.449 347.766 212.854 347.766 210.641V184.078H330.09V258.98H351.184C352.746 258.98 353.951 259.273 354.797 259.859C355.643 260.38 356.262 261.357 356.652 262.789C357.108 264.221 357.336 266.305 357.336 269.039C357.336 271.773 357.108 273.857 356.652 275.289C356.262 276.721 355.643 277.698 354.797 278.219C353.951 278.74 352.746 279 351.184 279H284.582C283.02 279 281.815 278.74 280.969 278.219C280.122 277.698 279.471 276.721 279.016 275.289C278.625 273.857 278.43 271.773 278.43 269.039C278.43 266.305 278.625 264.221 279.016 262.789C279.471 261.357 280.122 260.38 280.969 259.859C281.815 259.273 283.02 258.98 284.582 258.98H305.676V184.078H288V210.641C288 212.789 287.089 214.352 285.266 215.328C283.508 216.305 280.773 216.793 277.062 216.793C273.482 216.793 270.975 216.337 269.543 215.426C268.176 214.449 267.492 212.854 267.492 210.641V169.43C267.492 167.151 267.98 165.523 268.957 164.547C269.999 163.57 271.626 163.082 273.84 163.082H361.926Z" fill="black"/>
<path d="M212.172 289.633C218.161 289.633 222.693 290.987 225.766 293.695C228.865 296.378 230.414 300.258 230.414 305.336C230.414 310.414 228.865 314.307 225.766 317.016C222.693 319.724 218.161 321.078 212.172 321.078H206.312V327.992H214.789C215.414 327.992 215.896 328.109 216.234 328.344C216.573 328.552 216.82 328.943 216.977 329.516C217.159 330.089 217.25 330.922 217.25 332.016C217.25 333.109 217.159 333.943 216.977 334.516C216.82 335.089 216.573 335.479 216.234 335.688C215.896 335.896 215.414 336 214.789 336H190.805C190.18 336 189.698 335.896 189.359 335.688C189.021 335.479 188.76 335.089 188.578 334.516C188.422 333.943 188.344 333.109 188.344 332.016C188.344 330.922 188.422 330.089 188.578 329.516C188.76 328.943 189.021 328.552 189.359 328.344C189.698 328.109 190.18 327.992 190.805 327.992H196.547V297.641H190.805C190.18 297.641 189.698 297.536 189.359 297.328C189.021 297.12 188.76 296.729 188.578 296.156C188.422 295.583 188.344 294.75 188.344 293.656C188.344 292.562 188.422 291.729 188.578 291.156C188.76 290.583 189.021 290.193 189.359 289.984C189.698 289.75 190.18 289.633 190.805 289.633H212.172ZM206.312 312.68H210.961C214.06 312.68 216.391 312.081 217.953 310.883C219.542 309.685 220.336 307.836 220.336 305.336C220.336 302.836 219.542 301 217.953 299.828C216.391 298.63 214.06 298.031 210.961 298.031H206.312V312.68ZM259.359 289.633C264.854 289.633 269.073 290.844 272.016 293.266C274.958 295.688 276.43 299.203 276.43 303.812C276.43 309.828 273.201 313.617 266.742 315.18C268.148 315.727 269.268 316.534 270.102 317.602C270.648 318.305 271.143 319.047 271.586 319.828C272.055 320.583 272.589 321.547 273.188 322.719C273.812 323.969 274.294 324.867 274.633 325.414C275.154 326.273 275.674 326.924 276.195 327.367C276.716 327.784 277.302 327.992 277.953 327.992H278.695C279.32 327.992 279.802 328.109 280.141 328.344C280.479 328.552 280.727 328.943 280.883 329.516C281.065 330.089 281.156 330.922 281.156 332.016C281.156 333.109 281.065 333.943 280.883 334.516C280.727 335.089 280.479 335.479 280.141 335.688C279.802 335.896 279.32 336 278.695 336H274.906C272.849 336 271.182 335.583 269.906 334.75C268.63 333.917 267.458 332.523 266.391 330.57C265.87 329.659 265.245 328.409 264.516 326.82C263.995 325.622 263.5 324.594 263.031 323.734C262.562 322.849 262.042 321.99 261.469 321.156C260.661 320.036 259.763 319.229 258.773 318.734C257.784 318.24 256.599 317.992 255.219 317.992H252.719V327.992H256.508C257.133 327.992 257.615 328.109 257.953 328.344C258.292 328.552 258.539 328.943 258.695 329.516C258.878 330.089 258.969 330.922 258.969 332.016C258.969 333.109 258.878 333.943 258.695 334.516C258.539 335.089 258.292 335.479 257.953 335.688C257.615 335.896 257.133 336 256.508 336H238.773C238.148 336 237.667 335.896 237.328 335.688C236.99 335.479 236.729 335.089 236.547 334.516C236.391 333.943 236.312 333.109 236.312 332.016C236.312 330.922 236.391 330.089 236.547 329.516C236.729 328.943 236.99 328.552 237.328 328.344C237.667 328.109 238.148 327.992 238.773 327.992H242.953V297.641H238.773C238.148 297.641 237.667 297.536 237.328 297.328C236.99 297.12 236.729 296.729 236.547 296.156C236.391 295.583 236.312 294.75 236.312 293.656C236.312 292.562 236.391 291.729 236.547 291.156C236.729 290.583 236.99 290.193 237.328 289.984C237.667 289.75 238.148 289.633 238.773 289.633H259.359ZM252.719 309.594H258.539C261.195 309.594 263.161 309.125 264.438 308.188C265.714 307.224 266.352 305.766 266.352 303.812C266.352 301.859 265.714 300.414 264.438 299.477C263.161 298.513 261.195 298.031 258.539 298.031H252.719V309.594ZM305.922 288.773C310.193 288.773 313.956 289.75 317.211 291.703C320.466 293.63 322.979 296.417 324.75 300.062C326.547 303.682 327.445 307.927 327.445 312.797C327.445 317.667 326.547 321.924 324.75 325.57C322.979 329.19 320.466 331.977 317.211 333.93C313.956 335.883 310.193 336.859 305.922 336.859C301.651 336.859 297.888 335.883 294.633 333.93C291.378 331.977 288.852 329.19 287.055 325.57C285.284 321.924 284.398 317.667 284.398 312.797C284.398 307.927 285.284 303.682 287.055 300.062C288.852 296.417 291.378 293.63 294.633 291.703C297.888 289.75 301.651 288.773 305.922 288.773ZM305.922 297.641C302.302 297.641 299.555 298.943 297.68 301.547C295.805 304.151 294.867 307.901 294.867 312.797C294.867 317.693 295.805 321.456 297.68 324.086C299.555 326.69 302.302 327.992 305.922 327.992C309.542 327.992 312.289 326.69 314.164 324.086C316.039 321.456 316.977 317.693 316.977 312.797C316.977 307.901 316.039 304.151 314.164 301.547C312.289 298.943 309.542 297.641 305.922 297.641Z" fill="black"/>
</g>
<defs>
<clipPath id="clip0_1_2">
<rect width="512" height="512" fill="white"/>
</clipPath>
</defs>
</svg>
